<svg xmlns="http://www.w3.org/2000/svg" xmlns:xlink="http://www.w3.org/1999/xlink" width="32" height="32" viewBox="0 0 32 32" fill="none"><g opacity="1" transform="translate(0 0)  rotate(0 16 16)"> <path id="分组 1" fill-rule="evenodd" style="fill:#FFFFFF" transform="translate(4 11.795211495794774)  rotate(0 12 4.204788504205129)" opacity="1" d="M12.3477 0.603764L12.3477 2.11376L13.3277 2.11376L13.3277 6.93376L11.7577 6.93376L11.0077 8.41376L16.5277 8.41376L16.5277 6.94376L14.9277 6.94376L14.9277 2.09376L15.8977 2.09376L15.8977 0.603764L12.3477 0.603764Z M8.52755 6.84016C8.30755 7.28016 8.04755 7.79016 7.73755 8.40016C8.55755 8.40016 9.27755 8.41016 9.98755 8.40016C10.0875 8.39016 10.2175 8.32016 10.2575 8.24016C10.4975 7.82016 10.7075 7.37016 10.9775 6.84016L8.52755 6.84016Z M4.70697 0.000937537L3.16697 0.000937537L3.16697 7.11094L2.14697 7.11094L3.12697 8.40094L4.05697 8.40094C4.12697 8.40094 4.70697 8.35094 4.69697 7.45094C4.70697 5.12094 4.70697 2.33094 4.70697 0.000937537L4.70697 0.000937537Z M21.7248 5.00094C22.0648 5.00094 22.2548 5.22094 22.2648 5.55094C22.2748 5.95094 22.2648 7.11094 22.2648 7.11094L20.7248 7.10094L21.3148 8.38094L22.7648 8.38094C22.9348 8.37094 23.8248 8.30094 23.8248 7.30094L23.8248 4.61094C23.8248 3.71094 23.2648 3.44094 21.9748 3.45094C21.9748 3.09094 21.9648 2.03094 21.9648 1.70094C21.9548 0.600938 20.8248 0.630938 20.8248 0.630938L19.6048 0.630938L19.5948 0.000937537L19.5948 0.000937537L18.0548 0.000937537L18.0548 0.630938L17.0448 0.630938L17.0448 2.12094L18.0448 2.12094L18.0448 3.44094L16.5448 3.44094L16.5448 5.01094L18.0848 5.01094L18.0848 8.38094L19.6048 8.38094L19.6048 4.99094C20.3548 4.99094 21.0448 4.98094 21.7248 5.00094Z M2.07 2.15255L0.46 2.15255C0.59 4.18255 0 5.98255 0 6.04255C0.3 6.56255 0.59 7.09255 0.92 7.66255C2.06 6.05255 2.08 2.58255 2.07 2.19255L2.07 2.15255L2.07 2.15255Z M7.32507 2.14224L5.80507 2.14224C5.79507 5.00224 6.19507 6.93224 6.92507 7.57224C7.24507 6.64224 7.69507 5.66224 7.69507 5.66224C7.69507 5.66224 7.20507 3.65224 7.32507 2.14224L7.32507 2.14224Z M9.6926 3.66C9.5926 3.89 9.5126 4.04 9.4526 4.2C9.2426 4.65 9.0226 5.1 8.8426 5.55C8.6826 5.92 8.8426 6.22 9.2326 6.26C9.7726 6.32 10.3126 6.3 10.8526 6.3C10.9126 6.3 11.0026 6.24 11.0326 6.18C11.2326 5.82 11.4126 5.45 11.6126 5.04C11.4726 5.03 11.4026 5.02 11.3226 5.02C10.5926 5 10.5926 5 10.9226 4.34L11.0426 4.08C11.3626 3.44 11.6726 2.81 12.0326 2.1C11.3626 2.13 10.8026 2.16 10.1726 2.2C10.4426 1.49 10.8626 0.75 11.2426 0L11.2426 0L9.7026 0C9.2526 0.91 8.7826 1.83 8.3626 2.76C8.1026 3.34 8.3126 3.63 8.9526 3.66C9.1726 3.66 9.3926 3.66 9.6926 3.66Z M19.6059 2.11036L19.6159 3.44036L20.6359 3.44036L20.6359 2.11036L19.6059 2.11036Z M22.731 0.673266C22.491 0.833266 22.351 1.09327 22.351 1.37327L22.351 2.15327L23.171 2.15327C23.881 2.15327 24.271 1.29327 23.781 0.773266C23.771 0.763266 23.761 0.743266 23.741 0.733266C23.381 0.393266 23.011 0.503266 22.731 0.673266Z " /></g></svg>