<svg xmlns="http://www.w3.org/2000/svg" xmlns:xlink="http://www.w3.org/1999/xlink" width="29.257142857142867" height="29.27917875474236" viewBox="0 0 29.257142857142867 29.27917875474236" fill="none"><g opacity="1" transform="translate(0 0)  rotate(0 14.628571428571428 14.639589377371133)"><path id="矩形 1" fill-rule="evenodd" transform="translate(0 0)  rotate(0 14.628571428571428 14.639589377371133)" opacity="1" d="M0,29.28L29.26,29.28L29.26,0L0,0L0,29.28Z " /><g opacity="1" transform="translate(5.628571428571377 7.396112803503456)  rotate(0 9 7.243476573867516)"><path id="路径 2" fill-rule="evenodd" style="fill:#E9EAED" transform="translate(7.16752352313512 4.724803569696345)  rotate(0 5.416238238432465 4.881074789019328)" opacity="1" d="M0,4.56C0,7.09 2.39,9.13 5.42,9.13C6.06,9.13 6.7,8.97 7.33,8.81L9.08,9.76L8.6,8.19C9.88,7.24 10.83,5.98 10.83,4.56C10.83,2.05 8.28,0 5.42,0C2.39,0 0,2.05 0,4.56Z " /><path id="路径 4" fill-rule="evenodd" style="fill:#858C8C" transform="translate(10.196915316713568 7.247841691725721)  rotate(0 0.7158793287418799 0.6268309244349628)" opacity="1" d="M0,0.63C0,0.94 0.32,1.25 0.64,1.25C1.11,1.25 1.43,0.94 1.43,0.63C1.43,0.31 1.12,0 0.64,0C0.32,0 0,0.31 0,0.63Z " /><path id="路径 5" fill-rule="evenodd" style="fill:#858C8C" transform="translate(13.704724027548659 7.247841691725721)  rotate(0 0.7158793287418783 0.6268309244349628)" opacity="1" d="M0,0.63C0,0.94 0.32,1.25 0.63,1.25L0.64,1.25C1.11,1.25 1.43,0.94 1.43,0.63C1.43,0.31 1.11,0 0.64,0C0.32,0 0,0.31 0,0.63Z " /><path id="路径 3" fill-rule="evenodd" style="fill:#87D951" transform="translate(0 0)  rotate(0 6.40013580366673 5.748860219225949)" opacity="1" d="M2.55,9.6L1.91,11.5L4.14,10.39C4.94,10.54 5.58,10.7 6.37,10.7L6.67,10.7L6.96,10.68C6.83,10.25 6.77,9.81 6.77,9.36C6.77,6.61 9.16,4.38 12.19,4.38C12.39,4.38 12.59,4.4 12.8,4.42C12.25,1.88 9.51,0 6.37,0L6.37,0C2.87,0 0,2.36 0,5.35C0,7.08 0.95,8.5 2.55,9.6Z " /><path id="路径 6" fill-rule="evenodd" style="fill:#227D31" transform="translate(3.3349500436510855 2.678436317780561)  rotate(0 0.8782617130662573 0.785721214472795)" opacity="1" d="M0,0.79C0,1.26 0.48,1.57 0.96,1.57C1.44,1.57 1.76,1.25 1.76,0.79C1.76,0.31 1.44,0 0.96,0C0.48,0 0,0.31 0,0.79Z " /><path id="路径 7" fill-rule="evenodd" style="fill:#227D31" transform="translate(7.796100494713362 2.674944223493881)  rotate(0 0.8782617130662573 0.785721214472795)" opacity="1" d="M0,0.79C0,1.26 0.48,1.57 0.96,1.57C1.44,1.57 1.76,1.26 1.76,0.79C1.76,0.31 1.44,0 0.96,0C0.49,0 0.01,0.31 0,0.79Z " /></g></g></svg>