<svg width="128" height="128" viewBox="0 0 128 128" fill="none" xmlns="http://www.w3.org/2000/svg">
 
<path fill-rule="evenodd" clip-rule="evenodd" d="M58 17C56.3431 17 55 18.3431 55 20V32H24V37H55V46.5H29V52H79.5L71.9999 69.5C71.9999 69.5 45 58.8636 30.5 61.5C16 64.1364 7.07159 73.1566 8 86C9.00813 99.9463 22.5172 107 36.4999 107C60.4999 107 76.9999 85.5 76.9999 85.5L128 107V87L84.5 73.5C84.5 73.5 94 59.5 95 46.5H70V37H101V32H70V17H58ZM64.9999 79.5C48 68.5 13 64 12.5 83.5C11.9871 103.497 49.5 105 64.9999 79.5Z" fill="white"/>
</svg>
